<?xml version="1.0" standalone="no"?>
<!DOCTYPE svg PUBLIC "-//W3C//DTD SVG 20010904//EN"
 "http://www.w3.org/TR/2001/REC-SVG-20010904/DTD/svg10.dtd">
<svg version="1.0" xmlns="http://www.w3.org/2000/svg"
 width="700.000000pt" height="700.000000pt" viewBox="0 0 700.000000 700.000000"
 preserveAspectRatio="xMidYMid meet">
<metadata>
Created by potrace 1.14, written by Peter Selinger 2001-2017
</metadata>
<g transform="translate(0.000000,700.000000) scale(0.100000,-0.100000)"
fill="#000000" stroke="none">
<path d="M5547 5814 c-1 -1 -40 -5 -87 -8 -303 -23 -513 -54 -725 -110 -53
-13 -161 -50 -249 -85 -238 -94 -481 -278 -641 -486 -144 -188 -276 -496 -320
-750 -2 -16 -7 -41 -10 -55 -2 -13 -7 -42 -10 -65 -6 -39 -10 -66 -20 -122 -7
-44 -18 -127 -18 -139 0 -15 -32 -6 -51 14 -9 10 -39 49 -68 87 -55 75 -217
242 -283 292 -247 189 -522 296 -850 330 -133 14 -426 8 -575 -12 -14 -2 -47
-6 -75 -9 -27 -4 -66 -9 -85 -12 -19 -4 -42 -8 -51 -9 -35 -7 -90 -35 -96 -51
-18 -48 -4 -116 70 -329 62 -180 120 -323 147 -365 6 -8 15 -26 21 -40 50
-118 236 -327 372 -418 236 -157 452 -212 852 -218 225 -4 242 -3 273 16 42
26 41 46 -4 168 -57 151 -141 307 -218 401 -66 81 -208 211 -301 275 -22 15
-31 25 -20 22 11 -2 40 -10 65 -16 283 -69 587 -399 709 -768 36 -110 67 -251
78 -357 10 -100 10 -401 0 -519 -9 -117 -22 -160 -57 -199 l-29 -32 -114 3
-114 2 -104 -49 c-138 -66 -220 -90 -544 -161 -77 -17 -162 -37 -190 -45 -27
-8 -84 -24 -125 -36 -41 -12 -92 -30 -112 -40 -91 -46 -73 -131 41 -196 25
-14 91 -53 146 -86 290 -174 649 -313 915 -352 24 -4 47 -8 50 -10 3 -2 33 -7
65 -10 33 -4 69 -9 79 -11 34 -6 237 -17 326 -17 87 0 291 11 326 17 10 2 46
7 79 11 32 4 66 8 75 10 8 1 38 6 65 9 273 39 649 168 864 298 34 21 65 38 67
38 2 0 37 23 76 51 83 59 148 118 148 135 0 56 -311 202 -487 229 -21 3 -50 8
-63 11 -14 3 -97 7 -184 8 l-160 2 -58 52 c-101 90 -182 118 -355 126 -66 4
-114 11 -134 21 -37 20 -64 77 -75 160 -4 33 -9 62 -9 65 -2 6 -14 98 -20 150
-19 164 -25 519 -12 709 8 109 9 117 33 271 8 52 17 111 20 130 3 19 12 62 21
95 8 33 16 67 18 75 27 137 123 385 203 524 128 223 342 444 527 545 41 22
177 71 183 66 2 -2 -16 -23 -40 -48 -303 -311 -411 -453 -526 -697 -56 -120
-113 -305 -128 -415 -3 -27 -8 -53 -11 -57 -2 -4 -4 -36 -4 -70 -1 -53 3 -65
22 -81 22 -17 72 -18 129 -2 8 2 29 7 45 10 246 43 536 166 707 299 14 12 39
31 55 43 44 34 123 113 178 178 28 33 52 62 55 65 3 3 25 37 50 75 57 87 118
206 158 310 32 81 98 300 107 358 3 18 8 39 10 47 2 8 6 26 9 40 2 14 18 97
35 185 16 88 32 171 34 185 3 14 12 63 21 110 8 47 17 96 20 110 2 14 7 41 11
61 10 54 -12 71 -87 67 -33 -1 -60 -4 -61 -4z"/>
</g>
</svg>
