<?xml version="1.0" encoding="UTF-8" standalone="no"?>
<!DOCTYPE svg PUBLIC "-//W3C//DTD SVG 1.1//EN" "http://www.w3.org/Graphics/SVG/1.1/DTD/svg11.dtd">
<!-- Created with Vectornator (http://vectornator.io/) -->
<svg height="100%" stroke-miterlimit="10" fill="none" opacity="1" stroke="#000000" stroke-linecap="round" stroke-linejoin="round" stroke-width="1"  version="1.1" viewBox="0 0 24 24" width="100%" xml:space="preserve" xmlns="http://www.w3.org/2000/svg" xmlns:vectornator="http://vectornator.io" xmlns:xlink="http://www.w3.org/1999/xlink">
<path d="M11.9791 3.61176C10.2975 3.59222 8.72776 3.89724 7.27866 4.48141C6.05714 4.97383 4.95647 5.64854 3.97463 6.45915C3.2258 7.0774 2.5879 7.73947 2.05611 8.40417C1.8676 8.63979 1.70541 8.86098 1.56829 9.06186C1.51856 9.13472 1.47455 9.19974 1.43738 9.25823C1.41261 9.29721 1.39366 9.32779 1.38127 9.34862C1.019 9.95803 1.21916 10.7459 1.82856 11.1082C2.43797 11.4705 3.22584 11.2703 3.58812 10.6609C3.5876 10.6618 3.59279 10.6531 3.6037 10.6359C3.62601 10.6008 3.65413 10.5591 3.68786 10.5097C3.78923 10.3612 3.91342 10.1915 4.06034 10.0079C4.48693 9.47467 5.00414 8.9398 5.6095 8.44001C7.35674 6.99747 9.45937 6.14969 11.9495 6.17862C14.4171 6.20729 16.4656 7.04854 18.143 8.44313C18.7428 8.9418 19.2495 9.47653 19.6641 10.0079C19.8067 10.1906 19.9269 10.3576 20.0241 10.505C20.0564 10.5539 20.0841 10.5968 20.1052 10.6313C20.1116 10.6418 20.1194 10.6578 20.1176 10.6546C20.4682 11.2708 21.2532 11.4853 21.8694 11.1347C22.4856 10.7841 22.7 10.0007 22.3494 9.38447C22.3372 9.36293 22.3191 9.33225 22.2949 9.29252C22.2586 9.23318 22.2157 9.16522 22.1671 9.09147C22.0332 8.88853 21.8741 8.66684 21.6886 8.4291C21.1659 7.75919 20.5328 7.09256 19.7841 6.47006C18.8349 5.6809 17.7666 5.01839 16.5736 4.52816C15.166 3.94979 13.6326 3.63097 11.9791 3.61176Z" />
<path d="M12.1038 8.20312C10.065 8.11886 8.32431 8.80645 6.90773 9.98917C6.44551 10.3751 6.05036 10.7879 5.72015 11.2032C5.60232 11.3515 5.50011 11.4914 5.41313 11.6194C5.35631 11.7029 5.31386 11.7687 5.28689 11.8142C4.925 12.4238 5.12608 13.2103 5.73574 13.5722C6.34539 13.9341 7.1334 13.7345 7.49529 13.1249C7.49244 13.1297 7.49322 13.129 7.49685 13.1233C7.50692 13.1074 7.51933 13.0868 7.53581 13.0625C7.58776 12.9861 7.65198 12.8977 7.72907 12.8007C7.95578 12.5155 8.23105 12.2271 8.55196 11.9591C9.50816 11.1608 10.6462 10.7126 11.9978 10.7684C13.325 10.8233 14.3809 11.2588 15.2192 11.9529C15.531 12.2109 15.7889 12.4855 15.9938 12.7571C16.0625 12.8481 16.1198 12.9314 16.1637 13.0018C16.1771 13.0233 16.1873 13.04 16.1949 13.0532C16.5271 13.6765 17.301 13.9145 17.9264 13.5846C18.5535 13.2539 18.7932 12.4771 18.4625 11.85C18.436 11.7998 18.3959 11.7292 18.3409 11.6412C18.258 11.5085 18.1599 11.3636 18.0448 11.211C17.7246 10.7865 17.3304 10.3668 16.8572 9.97514C15.6022 8.9362 14.0157 8.28213 12.1038 8.20312Z"/>
<path d="M8.77905 17.1592C8.77905 15.4377 10.1712 14.0421 11.8886 14.0421C13.6059 14.0421 14.9981 15.4377 14.9981 17.1592C14.9981 18.8807 13.6059 20.2763 11.8886 20.2763C10.1712 20.2763 8.77905 18.8807 8.77905 17.1592Z" stroke-linecap="butt" stroke-linejoin="round" stroke-width="2.7"/>
</svg>
